<svg version="1.2" xmlns="http://www.w3.org/2000/svg" viewBox="0 0 1416 1283" width="1416" height="1283"><defs><filter x="-50%" y="-50%" width="200%" height="200%" id="f1" ><feDropShadow dx="-45.441332733606764" dy="-23.153515486716884" stdDeviation="8.75" flood-color="#000000" flood-opacity=".8"/></filter><filter x="-50%" y="-50%" width="200%" height="200%" id="f2" ><feDropShadow dx="-45.441332733606764" dy="-23.153515486716884" stdDeviation="8.75" flood-color="#000000" flood-opacity=".4"/></filter><filter x="-50%" y="-50%" width="200%" height="200%" id="f3" ><feDropShadow dx="-45.441332733606764" dy="-23.153515486716884" stdDeviation="8.75" flood-color="#000000" flood-opacity=".4"/></filter><linearGradient id="P" gradientUnits="userSpaceOnUse"/><linearGradient id="g1" x1="1416" y1="971.7" x2="118" y2="310.3" href="#P"><stop stop-color="#f00"/><stop offset="1" stop-color="#ffc502"/></linearGradient></defs><style>.a{filter:url(#f1);fill:#bb0006}.b{filter:url(#f2);fill:#f00}.c{opacity:.8;filter:url(#f3);fill:url(#g1)}</style><path class="a" d="m747.2 70c358.3 0 648.8 270.4 648.8 603.9 0 333.5-226.8 600.7-597 608.1-494 9.9-700.5-274.6-700.5-608.1 0-333.5 290.5-603.9 648.7-603.9z"/><path class="b" d="m751.5 47.4c357.6 21.3 631.6 308.4 611.8 641.3-19.8 332.9-262 586.2-632 571.7-493.7-19.4-683-315.7-663.2-648.6 19.7-333 325.7-585.6 683.4-564.4z"/><path class="c" d="m767 44c358.4 0 649 266.3 649 594.8 0 328.5-226.8 591.6-597.2 599-494.2 9.7-700.8-270.5-700.8-599 0-328.5 290.6-594.8 649-594.8z"/></svg>