<svg version="1.2" xmlns="http://www.w3.org/2000/svg" viewBox="0 0 956 992" width="956" height="992"><defs><filter x="-50%" y="-50%" width="200%" height="200%" id="f1" ><feDropShadow dx="-36.531267491723085" dy="-18.613610489321417" stdDeviation="8.75" flood-color="#ff390d" flood-opacity="1"/></filter><linearGradient id="P" gradientUnits="userSpaceOnUse"/><linearGradient id="g1" x1="956" y1="767.9" x2="67.5" y2="315.2" href="#P"><stop stop-color="#ff3800"/><stop offset="1" stop-color="#fffa00"/></linearGradient><filter x="-50%" y="-50%" width="200%" height="200%" id="f2" ><feDropShadow dx="-45.441332733606764" dy="-23.153515486716884" stdDeviation="8.75" flood-color="#ff3d00" flood-opacity=".8"/></filter><linearGradient id="g2" x1="928.6" y1="743.6" x2="67.5" y2="304.8" href="#P"><stop stop-color="#ffc502"/><stop offset="1" stop-color="#ff0010"/></linearGradient><filter x="-50%" y="-50%" width="200%" height="200%" id="f3" ><feDropShadow dx="-20.49315005633246" dy="-10.441781494009575" stdDeviation="13.333333333333334" flood-color="#be0000" flood-opacity=".8"/></filter><filter x="-50%" y="-50%" width="200%" height="200%" id="f4" ><feDropShadow dx="-45.441332733606764" dy="-23.153515486716884" stdDeviation="8.75" flood-color="#000000" flood-opacity=".4"/></filter><linearGradient id="g3" x1="875.8" y1="655.3" x2="146.8" y2="283.8" href="#P"><stop stop-color="#ffc502"/><stop offset="1" stop-color="#ff0010"/></linearGradient></defs><style>.a{opacity:.6;mix-blend-mode:hard-light;filter:url(#f1);fill:url(#g1)}.b{opacity:.8;mix-blend-mode:screen;filter:url(#f2);fill:url(#g2)}.c{opacity:.6;filter:url(#f3);fill:#ff0810}.d{opacity:.6;mix-blend-mode:screen;filter:url(#f4);fill:url(#g3)}</style><path class="a" d="m194.6 240.7c125.1-135.6 280.4-193.5 376.4-99.7 45.5 44.5 79.3 3.9 133.8 11.1 40.5 5.4 76.8 18.9 114.6 45.6 169.1 119.4 191.2 418.7 9.9 615.2-181.3 196.5-462.6 233.2-628.3 81.9-165.7-151.3-187.7-457.6-6.4-654.1z"/><path class="b" d="m190.7 235c121.2-130.3 271.8-186 364.8-95.8 44.1 42.8 76.9 3.7 129.7 10.7 39.3 5.2 74.4 18.1 111 43.8 163.9 114.8 185.4 402.5 9.7 591.4-175.8 188.9-448.4 224.1-609 78.7-160.6-145.5-181.9-439.9-6.2-628.8z"/><path class="c" d="m506 44c206.3 0 373.5 213 373.5 475.7 0 262.7-201.5 465.1-390.3 439.8-42.2-5.7-75-20-105.7-42.9-41.4-30.8-38.9-82.7-97.4-80.6-123.4 4.5-192.2-140.5-192.2-321.7 0-262.7 205.8-470.3 412.1-470.3z"/><path class="d" d="m529.2 44c191.4 0 346.6 197.5 346.6 441.2 0 243.7-187 431.4-362.2 407.9-39.1-5.3-69.6-18.5-98.1-39.7-38.4-28.6-36.1-76.8-90.4-74.8-114.4 4.1-178.3-130.3-178.3-298.4 0-243.6 191-436.2 382.4-436.2z"/></svg>